<?xml version="1.0" encoding="utf-8"?>
<!-- Generator: Adobe Illustrator 17.0.0, SVG Export Plug-In . SVG Version: 6.00 Build 0)  -->
<!DOCTYPE svg PUBLIC "-//W3C//DTD SVG 1.1//EN" "http://www.w3.org/Graphics/SVG/1.1/DTD/svg11.dtd">
<svg version="1.1" id="Layer_1" xmlns="http://www.w3.org/2000/svg" xmlns:xlink="http://www.w3.org/1999/xlink" x="0px" y="0px"
	 width="424.5px" height="460.1px" viewBox="0 0 424.5 460.1" enable-background="new 0 0 424.5 460.1" xml:space="preserve">
<rect x="-3.8" y="-2.4" fill="#A92721" width="428" height="463"/>
<path fill="#FFFFFF" d="M371.1,31.4c-4.1-4.1-4.1-10.9,0-15c4.1-4.1,10.9-4.1,15,0l1.4,1.4c4.1,4.1,4.1,10.9,0,15
	c-2.1,2.1-4.8,3.1-7.5,3.1c-2.7,0-5.4-1-7.5-3.1L371.1,31.4L371.1,31.4z M369.7,149.6c16.9,0,30.7,13.8,30.7,30.7
	s-13.8,30.7-30.7,30.7S339,197.2,339,180.3S352.8,149.6,369.7,149.6z M369.7,170.8c-5.2,0-9.5,4.2-9.5,9.5c0,5.2,4.2,9.5,9.5,9.5
	c5.2,0,9.5-4.2,9.5-9.5C379.2,175,374.9,170.8,369.7,170.8z M417.8,303.3V316c0,16.6-13.5,30.1-30.1,30.1h-8.8v57.2
	c0,25.1-20.5,45.6-45.6,45.6H93.6c-25.1,0-45.6-20.5-45.6-45.6v-57.2h-8.8c-16.6,0-30.1-13.5-30.1-30.1v-12.7
	c0-16.6,13.5-30.1,30.1-30.1H48v-31.4c0-5.9,4.8-10.6,10.6-10.6h309.7c5.9,0,10.6,4.7,10.6,10.6v31.4h8.8
	C404.3,273.3,417.8,286.7,417.8,303.3z M48,294.5h-8.8c-4.9,0-8.8,4-8.8,8.8V316c0,4.9,4,8.8,8.8,8.8H48V294.5L48,294.5z
	 M357.7,252.5H69.2v150.8c0,13.4,10.9,24.4,24.4,24.4h239.7c13.4,0,24.4-10.9,24.4-24.4V252.5L357.7,252.5z M396.6,303.3
	c0-4.9-4-8.8-8.8-8.8h-8.8v30.4h8.8c4.9,0,8.8-4,8.8-8.8V303.3L396.6,303.3z M341.7,98.4c2.7,0,5.4-1,7.5-3.1l1.4-1.4
	c4.1-4.1,4.1-10.9,0-15c-4.1-4.1-10.9-4.1-15,0l-1.4,1.4c-4.1,4.1-4.1,10.9,0,15C336.3,97.3,339,98.4,341.7,98.4z M253.8,210.3
	c0,5.9,4.8,10.6,10.6,10.6c5.9,0,10.6-4.7,10.6-10.6c0-8.4,6.8-15.2,15.2-15.2c8.4,0,15.2,6.8,15.2,15.2c0,5.9,4.8,10.6,10.6,10.6
	s10.6-4.7,10.6-10.6c0-20.1-16.3-36.4-36.4-36.4C270.1,173.9,253.8,190.2,253.8,210.3L253.8,210.3z M55.7,194.4
	c-1.3-5.7,2.2-11.4,7.9-12.8l115.3-27.2l-2-8.6c-3.8-16.1,6.2-32.4,22.3-36.2l12.4-2.9c16.1-3.8,32.4,6.2,36.2,22.3l2,8.6
	l115.3-27.3c5.7-1.3,11.4,2.2,12.8,7.9c1.3,5.7-2.2,11.4-7.9,12.8L68.4,202.3c-0.8,0.2-1.6,0.3-2.5,0.3
	C61.2,202.6,56.8,199.3,55.7,194.4L55.7,194.4z M197.4,140.9l2,8.6l29.6-7l-2-8.6c-1-4.1-4.6-6.8-8.6-6.8c-0.7,0-1.4,0.1-2,0.2
	l-12.4,2.9C199.2,131.4,196.3,136.2,197.4,140.9L197.4,140.9z"/>
</svg>
